<svg width="139" height="20" viewBox="0 0 139 20" fill="none" xmlns="http://www.w3.org/2000/svg">
<g clip-path="url(#clip0)">
<path fill-rule="evenodd" clip-rule="evenodd" d="M10.802 0L0 19.704H5.986L16.789 0H10.802Z" fill="url(#paint0_linear)"/>
<path opacity="0.5" fill-rule="evenodd" clip-rule="evenodd" d="M18.1709 0L7.36792 19.704H13.3539L24.1569 0H18.1709Z" fill="url(#paint1_linear)"/>
<path opacity="0.15" fill-rule="evenodd" clip-rule="evenodd" d="M25.5391 0L14.7371 19.704H20.7231L31.5251 0H25.5391Z" fill="url(#paint2_linear)"/>
<path d="M32.9668 18H38.1147V10.2154C38.1147 8.92215 38.8555 7.98047 40.0734 7.98047C41.3666 7.98047 42.0195 8.83426 42.0195 10.228V18H47.1674V9.09794C47.1674 5.77065 45.4598 3.83705 42.4088 3.83705C40.3119 3.83705 38.8931 4.84152 38.2151 6.71233H38.1147V4.13839H32.9668V18ZM53.7341 18.3013C55.8309 18.3013 57.2497 17.2969 57.9277 15.4261H58.0282V18H63.1761V4.13839H58.0282V11.923C58.0282 13.2162 57.2874 14.1579 56.0695 14.1579C54.7762 14.1579 54.1233 13.3041 54.1233 11.9104V4.13839H48.9754V13.0405C48.9754 16.3677 50.683 18.3013 53.7341 18.3013ZM74.5642 18.3013C78.0045 18.3013 79.9757 15.6897 79.9757 11.0692V11.0566C79.9757 6.41099 78.0296 3.83705 74.5391 3.83705C72.5552 3.83705 71.0737 4.87919 70.4208 6.637H70.3203V-0.118024H65.1724V18H70.3203V15.627H70.4208C71.0485 17.2969 72.5552 18.3013 74.5642 18.3013ZM72.5427 14.1579C71.1867 14.1579 70.3203 13.0153 70.3203 11.0818V11.0692C70.3203 9.12305 71.1992 7.98047 72.5427 7.98047C73.8736 7.98047 74.7525 9.12305 74.7525 11.0566V11.0692C74.7525 12.9777 73.8862 14.1579 72.5427 14.1579ZM85.7514 18.1758C87.5343 18.1758 88.8276 17.435 89.606 16.1166H89.7065V18H94.8544V8.57059C94.8544 5.75809 92.2804 3.83705 88.4258 3.83705C84.3828 3.83705 81.9847 5.68276 81.7712 8.50781L81.7586 8.67104H86.3541L86.3792 8.54548C86.4922 7.98047 87.0823 7.5159 88.137 7.5159C89.1917 7.5159 89.7065 8.01814 89.7065 8.82171V9.38672L86.7935 9.57506C83.1021 9.82617 81.043 11.2952 81.043 13.9696V13.9821C81.043 16.3677 82.9514 18.1758 85.7514 18.1758ZM86.0653 13.6055V13.5929C86.0653 12.9023 86.555 12.4754 87.6473 12.4001L89.7065 12.2494V13.1283C89.7065 14.0449 88.8652 14.7229 87.6348 14.7229C86.6805 14.7229 86.0653 14.3337 86.0653 13.6055ZM96.8005 18H101.948V10.2154C101.948 8.92215 102.689 7.98047 103.907 7.98047C105.2 7.98047 105.853 8.83426 105.853 10.228V18H111.001V9.09794C111.001 5.77065 109.294 3.83705 106.242 3.83705C104.146 3.83705 102.727 4.84152 102.049 6.71233H101.948V4.13839H96.8005V18ZM112.935 18H118.083V14.0073L118.748 13.1409L121.623 18H127.537L122.603 10.0522L127.211 4.13839H121.548L118.183 9.14816H118.083V-0.118024H112.935V18Z" fill="#2D314D"/>
</g>
<defs>
<linearGradient id="paint0_linear" x1="12.1208" y1="-7.1397e-07" x2="0.484379" y2="18.1287" gradientUnits="userSpaceOnUse">
<stop stop-color="#33D35E"/>
<stop offset="1" stop-color="#2AB6D9"/>
</linearGradient>
<linearGradient id="paint1_linear" x1="19.4887" y1="-7.1397e-07" x2="7.8523" y2="18.1287" gradientUnits="userSpaceOnUse">
<stop stop-color="#33D35E"/>
<stop offset="1" stop-color="#2AB6D9"/>
</linearGradient>
<linearGradient id="paint2_linear" x1="26.8572" y1="-7.1397e-07" x2="15.2204" y2="18.1281" gradientUnits="userSpaceOnUse">
<stop stop-color="#33D35E"/>
<stop offset="1" stop-color="#2AB6D9"/>
</linearGradient>
<clipPath id="clip0">
<rect width="139" height="20" fill="white"/>
</clipPath>
</defs>
</svg>
